<svg width="80" height="81" viewBox="0 0 80 81" fill="none" xmlns="http://www.w3.org/2000/svg">
<path d="M40 0.5L40.0077 40.4606L55.3074 3.54481L40.0223 40.4668L68.2842 12.2157L40.0332 40.4777L76.9552 25.1926L40.0394 40.4923L80 40.5L40.0394 40.5077L76.9552 55.8074L40.0332 40.5223L68.2842 68.7842L40.0223 40.5332L55.3074 77.4552L40.0077 40.5394L40 80.5L39.9923 40.5394L24.6926 77.4552L39.9777 40.5332L11.7157 68.7842L39.9668 40.5223L3.04481 55.8074L39.9606 40.5077L0 40.5L39.9606 40.4923L3.04481 25.1926L39.9668 40.4777L11.7157 12.2157L39.9777 40.4668L24.6926 3.54481L39.9923 40.4606L40 0.5Z" fill="#C8FEC7" stroke="#C8FEC7" stroke-width="4"/>
</svg>
