<svg width="53" height="52" viewBox="0 0 53 52" fill="none" xmlns="http://www.w3.org/2000/svg">
<rect x="1.10001" y="0.5" width="51" height="51" rx="9.5" stroke="white"/>
<path d="M19.9332 46C23.6132 46 26.5998 43.0133 26.5998 39.3333V32.6666H19.9332C16.2532 32.6666 13.2665 35.6533 13.2665 39.3333C13.2665 43.0133 16.2532 46 19.9332 46Z" fill="white"/>
<path d="M13.2665 25.9999C13.2665 22.3199 16.2532 19.3333 19.9332 19.3333H26.5998V32.6666H19.9332C16.2532 32.6666 13.2665 29.6799 13.2665 25.9999Z" fill="white"/>
<path d="M13.2665 12.6667C13.2665 8.98667 16.2532 6 19.9332 6H26.5998V19.3333H19.9332C16.2532 19.3333 13.2665 16.3467 13.2665 12.6667Z" fill="white"/>
<path d="M26.5999 6H33.2665C36.9465 6 39.9332 8.98667 39.9332 12.6667C39.9332 16.3467 36.9465 19.3333 33.2665 19.3333H26.5999V6Z" fill="white"/>
<path d="M39.9332 25.9999C39.9332 29.6799 36.9465 32.6666 33.2665 32.6666C29.5865 32.6666 26.5999 29.6799 26.5999 25.9999C26.5999 22.3199 29.5865 19.3333 33.2665 19.3333C36.9465 19.3333 39.9332 22.3199 39.9332 25.9999Z" fill="white"/>
</svg>
