<svg width="53" height="52" viewBox="0 0 53 52" fill="none" xmlns="http://www.w3.org/2000/svg">
<rect x="0.900024" y="0.5" width="51" height="51" rx="9.5" stroke="white"/>
<path d="M26.3906 9.33337C23.0942 9.33337 19.8719 10.3109 17.131 12.1422C14.3902 13.9736 12.254 16.5765 10.9926 19.622C9.7311 22.6674 9.40104 26.0185 10.0441 29.2515C10.6872 32.4846 12.2746 35.4543 14.6054 37.7852C16.9363 40.116 19.906 41.7034 23.139 42.3465C26.3721 42.9896 29.7232 42.6595 32.7686 41.398C35.814 40.1366 38.417 38.0004 40.2484 35.2595C42.0797 32.5187 43.0572 29.2964 43.0572 26C43.0574 23.8113 42.6264 21.6439 41.7889 19.6218C40.9514 17.5996 39.7237 15.7622 38.1761 14.2145C36.6284 12.6668 34.791 11.4392 32.7688 10.6017C30.7466 9.76416 28.5793 9.33319 26.3906 9.33337ZM31.6897 34.5875C31.6273 34.743 31.5324 34.8835 31.4113 34.9993C31.2903 35.1152 31.1458 35.2038 30.9877 35.2593C30.8295 35.3148 30.6613 35.3358 30.4944 35.321C30.3275 35.3062 30.1656 35.2558 30.0197 35.1733L25.4953 31.6577L22.5914 34.3367C22.524 34.3865 22.4452 34.4185 22.3622 34.4299C22.2792 34.4412 22.1947 34.4315 22.1164 34.4016L22.6731 29.4208L22.6909 29.435L22.7023 29.3366C22.7023 29.3366 30.844 21.9241 31.1756 21.6083C31.5114 21.2933 31.4006 21.225 31.4006 21.225C31.4197 20.8408 30.7981 21.225 30.7981 21.225L20.0106 28.165L15.5181 26.635C15.5181 26.635 14.8281 26.3875 14.7631 25.8434C14.6947 25.3034 15.5406 25.01 15.5406 25.01L33.4022 17.9142C33.4022 17.9142 34.8706 17.26 34.8706 18.3434L31.6897 34.5875Z" fill="white"/>
</svg>
