<svg width="53" height="52" viewBox="0 0 53 52" fill="none" xmlns="http://www.w3.org/2000/svg">
<rect x="1.29999" y="0.5" width="51" height="51" rx="9.5" stroke="white"/>
<path d="M45.3684 14.4488C44.0016 15.056 42.5332 15.4644 40.992 15.6488C42.566 14.706 43.7728 13.2136 44.3412 11.434C42.87 12.3068 41.2392 12.9408 39.502 13.2836C38.1124 11.8024 36.1328 10.8768 33.9416 10.8768C29.0984 10.812 25.3748 15.5436 26.5208 20.2308C20.1892 19.9136 14.576 16.88 10.8168 12.2692C8.76519 15.6148 9.92999 20.3992 13.1752 22.4416C11.9268 22.4016 10.7512 22.0588 9.72439 21.4888C9.67679 25.2108 12.3172 28.3532 15.836 29.0544C14.7548 29.356 13.5092 29.4032 12.3952 29.1856C13.3652 32.212 16.1788 34.416 19.5124 34.4772C16.4984 36.8856 12.2788 38.1412 8.23199 37.6324C24.5048 47.6472 42.494 34.5264 41.5652 18.392C43.0544 17.3168 44.3472 15.9756 45.3684 14.4488Z" fill="white"/>
</svg>
